G04 (created by PCBNEW (2013-07-07 BZR 4022)-stable) date 23/08/2014 11:16:52*
%MOIN*%
G04 Gerber Fmt 3.4, Leading zero omitted, Abs format*
%FSLAX34Y34*%
G01*
G70*
G90*
G04 APERTURE LIST*
%ADD10C,0.00590551*%
%ADD11C,0.08*%
%ADD12O,0.1X0.2*%
%ADD13C,0.6362*%
%ADD14C,0.15*%
%ADD15C,0.035*%
%ADD16C,0.03*%
%ADD17C,0.01*%
G04 APERTURE END LIST*
G54D10*
G54D11*
X36000Y-36500D03*
X37000Y-36500D03*
G54D12*
X32500Y-42450D03*
X40500Y-42450D03*
G54D13*
X36500Y-42450D03*
G54D14*
X36500Y-31500D03*
G54D15*
X33250Y-39250D03*
X34750Y-36750D03*
X31950Y-39300D03*
G54D16*
X37000Y-36500D02*
X37000Y-41950D01*
X37000Y-41950D02*
X36500Y-42450D01*
X33250Y-39250D02*
X34750Y-37750D01*
X34750Y-37750D02*
X34750Y-36750D01*
X36000Y-37150D02*
X36000Y-36500D01*
X32500Y-42450D02*
X32500Y-40650D01*
X36000Y-37200D02*
X36000Y-36500D01*
X32500Y-40650D02*
X36000Y-37150D01*
X32500Y-39850D02*
X31950Y-39300D01*
X38250Y-46750D02*
X40500Y-44500D01*
X35000Y-46750D02*
X38250Y-46750D01*
X40500Y-44500D02*
X40500Y-42450D01*
X32500Y-44250D02*
X35000Y-46750D01*
X36000Y-37200D02*
X36000Y-37150D01*
X32500Y-42450D02*
X32500Y-44250D01*
X32500Y-42450D02*
X32500Y-39850D01*
G54D10*
G36*
X42875Y-43115D02*
X42565Y-43425D01*
X41450Y-43425D01*
X41325Y-43449D01*
X41220Y-43520D01*
X41150Y-43625D01*
X40900Y-43625D01*
X40900Y-43591D01*
X41030Y-43504D01*
X41192Y-43261D01*
X41250Y-42974D01*
X41250Y-41925D01*
X41192Y-41638D01*
X41030Y-41395D01*
X40787Y-41232D01*
X40500Y-41175D01*
X40212Y-41232D01*
X39969Y-41395D01*
X39843Y-41584D01*
X39456Y-40579D01*
X39359Y-40434D01*
X38964Y-40056D01*
X38893Y-40126D01*
X38893Y-39985D01*
X38515Y-39590D01*
X37654Y-39208D01*
X37654Y-36605D01*
X37644Y-36347D01*
X37564Y-36152D01*
X37500Y-36128D01*
X37500Y-31301D01*
X37348Y-30934D01*
X37067Y-30652D01*
X36699Y-30500D01*
X36301Y-30499D01*
X35934Y-30651D01*
X35652Y-30932D01*
X35500Y-31300D01*
X35499Y-31698D01*
X35651Y-32065D01*
X35932Y-32347D01*
X36300Y-32499D01*
X36698Y-32500D01*
X37065Y-32348D01*
X37347Y-32067D01*
X37499Y-31699D01*
X37500Y-31301D01*
X37500Y-36128D01*
X37458Y-36112D01*
X37387Y-36183D01*
X37387Y-36041D01*
X37347Y-35935D01*
X37105Y-35845D01*
X36847Y-35855D01*
X36652Y-35935D01*
X36612Y-36041D01*
X37000Y-36429D01*
X37387Y-36041D01*
X37387Y-36183D01*
X37070Y-36500D01*
X37458Y-36887D01*
X37564Y-36847D01*
X37654Y-36605D01*
X37654Y-39208D01*
X37387Y-39090D01*
X37387Y-36958D01*
X37000Y-36570D01*
X36612Y-36958D01*
X36652Y-37064D01*
X36894Y-37154D01*
X37152Y-37144D01*
X37347Y-37064D01*
X37387Y-36958D01*
X37387Y-39090D01*
X37267Y-39037D01*
X35903Y-39003D01*
X34629Y-39493D01*
X34484Y-39590D01*
X34106Y-39985D01*
X36500Y-42379D01*
X38893Y-39985D01*
X38893Y-40126D01*
X36570Y-42450D01*
X38964Y-44843D01*
X39359Y-44465D01*
X39859Y-43339D01*
X39969Y-43504D01*
X40100Y-43591D01*
X40100Y-44334D01*
X38893Y-45540D01*
X38893Y-44914D01*
X36500Y-42520D01*
X34106Y-44914D01*
X34484Y-45309D01*
X35732Y-45862D01*
X37096Y-45896D01*
X38370Y-45406D01*
X38515Y-45309D01*
X38893Y-44914D01*
X38893Y-45540D01*
X38084Y-46350D01*
X35165Y-46350D01*
X32900Y-44084D01*
X32900Y-43591D01*
X33030Y-43504D01*
X33156Y-43315D01*
X33543Y-44320D01*
X33640Y-44465D01*
X34035Y-44843D01*
X36429Y-42450D01*
X34035Y-40056D01*
X33640Y-40434D01*
X33140Y-41560D01*
X33030Y-41395D01*
X32900Y-41308D01*
X32900Y-40815D01*
X36144Y-37571D01*
X36153Y-37569D01*
X36282Y-37482D01*
X36369Y-37353D01*
X36400Y-37200D01*
X36400Y-37150D01*
X36400Y-37019D01*
X36534Y-36884D01*
X36541Y-36887D01*
X36929Y-36500D01*
X36541Y-36112D01*
X36534Y-36115D01*
X36368Y-35949D01*
X36129Y-35850D01*
X35871Y-35849D01*
X35632Y-35948D01*
X35449Y-36131D01*
X35350Y-36370D01*
X35349Y-36628D01*
X35448Y-36867D01*
X35582Y-37001D01*
X35150Y-37434D01*
X35150Y-36894D01*
X35174Y-36834D01*
X35175Y-36665D01*
X35110Y-36509D01*
X34991Y-36389D01*
X34834Y-36325D01*
X34665Y-36324D01*
X34509Y-36389D01*
X34389Y-36508D01*
X34325Y-36665D01*
X34324Y-36834D01*
X34350Y-36894D01*
X34350Y-37584D01*
X33069Y-38864D01*
X33009Y-38889D01*
X32889Y-39008D01*
X32825Y-39165D01*
X32824Y-39334D01*
X32889Y-39490D01*
X32991Y-39592D01*
X32872Y-39711D01*
X32869Y-39696D01*
X32869Y-39696D01*
X32840Y-39653D01*
X32782Y-39567D01*
X32782Y-39567D01*
X32335Y-39119D01*
X32310Y-39059D01*
X32191Y-38939D01*
X32034Y-38875D01*
X31865Y-38874D01*
X31709Y-38939D01*
X31589Y-39058D01*
X31525Y-39215D01*
X31524Y-39384D01*
X31589Y-39540D01*
X31708Y-39660D01*
X31769Y-39685D01*
X32100Y-40015D01*
X32100Y-40650D01*
X32100Y-41308D01*
X31969Y-41395D01*
X31807Y-41638D01*
X31750Y-41925D01*
X31750Y-42974D01*
X31807Y-43261D01*
X31969Y-43504D01*
X32100Y-43591D01*
X32100Y-43616D01*
X32074Y-43599D01*
X31950Y-43575D01*
X31849Y-43575D01*
X31779Y-43470D01*
X31674Y-43399D01*
X31550Y-43375D01*
X30434Y-43375D01*
X30075Y-43015D01*
X30075Y-35875D01*
X30150Y-35875D01*
X30274Y-35850D01*
X30379Y-35779D01*
X30450Y-35674D01*
X30475Y-35550D01*
X30453Y-35439D01*
X30519Y-35103D01*
X30772Y-34724D01*
X31153Y-34470D01*
X31663Y-34369D01*
X31695Y-34356D01*
X31724Y-34350D01*
X31748Y-34333D01*
X31780Y-34320D01*
X31804Y-34296D01*
X31829Y-34279D01*
X31846Y-34255D01*
X31870Y-34231D01*
X31883Y-34199D01*
X31900Y-34174D01*
X31906Y-34144D01*
X31918Y-34114D01*
X31918Y-34081D01*
X31925Y-34050D01*
X31925Y-33875D01*
X33350Y-33875D01*
X33474Y-33850D01*
X33579Y-33779D01*
X33650Y-33674D01*
X33675Y-33550D01*
X33675Y-32100D01*
X33650Y-31975D01*
X33579Y-31870D01*
X33474Y-31799D01*
X33350Y-31775D01*
X32665Y-31775D01*
X32665Y-30135D01*
X33420Y-30135D01*
X33544Y-30110D01*
X33649Y-30039D01*
X33720Y-29934D01*
X33745Y-29810D01*
X33745Y-29125D01*
X34436Y-29125D01*
X34467Y-29146D01*
X34590Y-29174D01*
X34715Y-29153D01*
X34823Y-29086D01*
X34848Y-29050D01*
X34879Y-29029D01*
X34950Y-28924D01*
X34972Y-28813D01*
X35155Y-28403D01*
X35570Y-28010D01*
X36104Y-27806D01*
X36725Y-27824D01*
X37220Y-27870D01*
X37609Y-28075D01*
X37890Y-28413D01*
X38039Y-28895D01*
X38046Y-28908D01*
X38049Y-28924D01*
X38079Y-28968D01*
X38100Y-29007D01*
X38111Y-29016D01*
X38120Y-29029D01*
X38163Y-29059D01*
X38198Y-29087D01*
X38212Y-29091D01*
X38225Y-29100D01*
X38275Y-29110D01*
X38320Y-29123D01*
X38334Y-29121D01*
X38350Y-29125D01*
X39325Y-29125D01*
X39325Y-29800D01*
X39349Y-29924D01*
X39420Y-30029D01*
X39525Y-30100D01*
X39650Y-30125D01*
X40375Y-30125D01*
X40375Y-31825D01*
X39650Y-31825D01*
X39525Y-31849D01*
X39420Y-31920D01*
X39349Y-32025D01*
X39325Y-32150D01*
X39325Y-33600D01*
X39349Y-33724D01*
X39420Y-33829D01*
X39525Y-33900D01*
X39650Y-33925D01*
X41125Y-33925D01*
X41125Y-34050D01*
X41149Y-34174D01*
X41220Y-34279D01*
X41325Y-34350D01*
X41450Y-34375D01*
X41546Y-34355D01*
X41921Y-34442D01*
X42324Y-34730D01*
X42587Y-35150D01*
X42626Y-35385D01*
X42599Y-35425D01*
X42575Y-35550D01*
X42599Y-35674D01*
X42670Y-35779D01*
X42721Y-35814D01*
X42724Y-35822D01*
X42811Y-35914D01*
X42875Y-35943D01*
X42875Y-43115D01*
X42875Y-43115D01*
G37*
G54D17*
X42875Y-43115D02*
X42565Y-43425D01*
X41450Y-43425D01*
X41325Y-43449D01*
X41220Y-43520D01*
X41150Y-43625D01*
X40900Y-43625D01*
X40900Y-43591D01*
X41030Y-43504D01*
X41192Y-43261D01*
X41250Y-42974D01*
X41250Y-41925D01*
X41192Y-41638D01*
X41030Y-41395D01*
X40787Y-41232D01*
X40500Y-41175D01*
X40212Y-41232D01*
X39969Y-41395D01*
X39843Y-41584D01*
X39456Y-40579D01*
X39359Y-40434D01*
X38964Y-40056D01*
X38893Y-40126D01*
X38893Y-39985D01*
X38515Y-39590D01*
X37654Y-39208D01*
X37654Y-36605D01*
X37644Y-36347D01*
X37564Y-36152D01*
X37500Y-36128D01*
X37500Y-31301D01*
X37348Y-30934D01*
X37067Y-30652D01*
X36699Y-30500D01*
X36301Y-30499D01*
X35934Y-30651D01*
X35652Y-30932D01*
X35500Y-31300D01*
X35499Y-31698D01*
X35651Y-32065D01*
X35932Y-32347D01*
X36300Y-32499D01*
X36698Y-32500D01*
X37065Y-32348D01*
X37347Y-32067D01*
X37499Y-31699D01*
X37500Y-31301D01*
X37500Y-36128D01*
X37458Y-36112D01*
X37387Y-36183D01*
X37387Y-36041D01*
X37347Y-35935D01*
X37105Y-35845D01*
X36847Y-35855D01*
X36652Y-35935D01*
X36612Y-36041D01*
X37000Y-36429D01*
X37387Y-36041D01*
X37387Y-36183D01*
X37070Y-36500D01*
X37458Y-36887D01*
X37564Y-36847D01*
X37654Y-36605D01*
X37654Y-39208D01*
X37387Y-39090D01*
X37387Y-36958D01*
X37000Y-36570D01*
X36612Y-36958D01*
X36652Y-37064D01*
X36894Y-37154D01*
X37152Y-37144D01*
X37347Y-37064D01*
X37387Y-36958D01*
X37387Y-39090D01*
X37267Y-39037D01*
X35903Y-39003D01*
X34629Y-39493D01*
X34484Y-39590D01*
X34106Y-39985D01*
X36500Y-42379D01*
X38893Y-39985D01*
X38893Y-40126D01*
X36570Y-42450D01*
X38964Y-44843D01*
X39359Y-44465D01*
X39859Y-43339D01*
X39969Y-43504D01*
X40100Y-43591D01*
X40100Y-44334D01*
X38893Y-45540D01*
X38893Y-44914D01*
X36500Y-42520D01*
X34106Y-44914D01*
X34484Y-45309D01*
X35732Y-45862D01*
X37096Y-45896D01*
X38370Y-45406D01*
X38515Y-45309D01*
X38893Y-44914D01*
X38893Y-45540D01*
X38084Y-46350D01*
X35165Y-46350D01*
X32900Y-44084D01*
X32900Y-43591D01*
X33030Y-43504D01*
X33156Y-43315D01*
X33543Y-44320D01*
X33640Y-44465D01*
X34035Y-44843D01*
X36429Y-42450D01*
X34035Y-40056D01*
X33640Y-40434D01*
X33140Y-41560D01*
X33030Y-41395D01*
X32900Y-41308D01*
X32900Y-40815D01*
X36144Y-37571D01*
X36153Y-37569D01*
X36282Y-37482D01*
X36369Y-37353D01*
X36400Y-37200D01*
X36400Y-37150D01*
X36400Y-37019D01*
X36534Y-36884D01*
X36541Y-36887D01*
X36929Y-36500D01*
X36541Y-36112D01*
X36534Y-36115D01*
X36368Y-35949D01*
X36129Y-35850D01*
X35871Y-35849D01*
X35632Y-35948D01*
X35449Y-36131D01*
X35350Y-36370D01*
X35349Y-36628D01*
X35448Y-36867D01*
X35582Y-37001D01*
X35150Y-37434D01*
X35150Y-36894D01*
X35174Y-36834D01*
X35175Y-36665D01*
X35110Y-36509D01*
X34991Y-36389D01*
X34834Y-36325D01*
X34665Y-36324D01*
X34509Y-36389D01*
X34389Y-36508D01*
X34325Y-36665D01*
X34324Y-36834D01*
X34350Y-36894D01*
X34350Y-37584D01*
X33069Y-38864D01*
X33009Y-38889D01*
X32889Y-39008D01*
X32825Y-39165D01*
X32824Y-39334D01*
X32889Y-39490D01*
X32991Y-39592D01*
X32872Y-39711D01*
X32869Y-39696D01*
X32869Y-39696D01*
X32840Y-39653D01*
X32782Y-39567D01*
X32782Y-39567D01*
X32335Y-39119D01*
X32310Y-39059D01*
X32191Y-38939D01*
X32034Y-38875D01*
X31865Y-38874D01*
X31709Y-38939D01*
X31589Y-39058D01*
X31525Y-39215D01*
X31524Y-39384D01*
X31589Y-39540D01*
X31708Y-39660D01*
X31769Y-39685D01*
X32100Y-40015D01*
X32100Y-40650D01*
X32100Y-41308D01*
X31969Y-41395D01*
X31807Y-41638D01*
X31750Y-41925D01*
X31750Y-42974D01*
X31807Y-43261D01*
X31969Y-43504D01*
X32100Y-43591D01*
X32100Y-43616D01*
X32074Y-43599D01*
X31950Y-43575D01*
X31849Y-43575D01*
X31779Y-43470D01*
X31674Y-43399D01*
X31550Y-43375D01*
X30434Y-43375D01*
X30075Y-43015D01*
X30075Y-35875D01*
X30150Y-35875D01*
X30274Y-35850D01*
X30379Y-35779D01*
X30450Y-35674D01*
X30475Y-35550D01*
X30453Y-35439D01*
X30519Y-35103D01*
X30772Y-34724D01*
X31153Y-34470D01*
X31663Y-34369D01*
X31695Y-34356D01*
X31724Y-34350D01*
X31748Y-34333D01*
X31780Y-34320D01*
X31804Y-34296D01*
X31829Y-34279D01*
X31846Y-34255D01*
X31870Y-34231D01*
X31883Y-34199D01*
X31900Y-34174D01*
X31906Y-34144D01*
X31918Y-34114D01*
X31918Y-34081D01*
X31925Y-34050D01*
X31925Y-33875D01*
X33350Y-33875D01*
X33474Y-33850D01*
X33579Y-33779D01*
X33650Y-33674D01*
X33675Y-33550D01*
X33675Y-32100D01*
X33650Y-31975D01*
X33579Y-31870D01*
X33474Y-31799D01*
X33350Y-31775D01*
X32665Y-31775D01*
X32665Y-30135D01*
X33420Y-30135D01*
X33544Y-30110D01*
X33649Y-30039D01*
X33720Y-29934D01*
X33745Y-29810D01*
X33745Y-29125D01*
X34436Y-29125D01*
X34467Y-29146D01*
X34590Y-29174D01*
X34715Y-29153D01*
X34823Y-29086D01*
X34848Y-29050D01*
X34879Y-29029D01*
X34950Y-28924D01*
X34972Y-28813D01*
X35155Y-28403D01*
X35570Y-28010D01*
X36104Y-27806D01*
X36725Y-27824D01*
X37220Y-27870D01*
X37609Y-28075D01*
X37890Y-28413D01*
X38039Y-28895D01*
X38046Y-28908D01*
X38049Y-28924D01*
X38079Y-28968D01*
X38100Y-29007D01*
X38111Y-29016D01*
X38120Y-29029D01*
X38163Y-29059D01*
X38198Y-29087D01*
X38212Y-29091D01*
X38225Y-29100D01*
X38275Y-29110D01*
X38320Y-29123D01*
X38334Y-29121D01*
X38350Y-29125D01*
X39325Y-29125D01*
X39325Y-29800D01*
X39349Y-29924D01*
X39420Y-30029D01*
X39525Y-30100D01*
X39650Y-30125D01*
X40375Y-30125D01*
X40375Y-31825D01*
X39650Y-31825D01*
X39525Y-31849D01*
X39420Y-31920D01*
X39349Y-32025D01*
X39325Y-32150D01*
X39325Y-33600D01*
X39349Y-33724D01*
X39420Y-33829D01*
X39525Y-33900D01*
X39650Y-33925D01*
X41125Y-33925D01*
X41125Y-34050D01*
X41149Y-34174D01*
X41220Y-34279D01*
X41325Y-34350D01*
X41450Y-34375D01*
X41546Y-34355D01*
X41921Y-34442D01*
X42324Y-34730D01*
X42587Y-35150D01*
X42626Y-35385D01*
X42599Y-35425D01*
X42575Y-35550D01*
X42599Y-35674D01*
X42670Y-35779D01*
X42721Y-35814D01*
X42724Y-35822D01*
X42811Y-35914D01*
X42875Y-35943D01*
X42875Y-43115D01*
M02*
