G04 (created by PCBNEW (2013-07-07 BZR 4022)-stable) date 23/08/2014 11:16:52*
%MOIN*%
G04 Gerber Fmt 3.4, Leading zero omitted, Abs format*
%FSLAX34Y34*%
G01*
G70*
G90*
G04 APERTURE LIST*
%ADD10C,0.00590551*%
%ADD11C,0.015*%
G04 APERTURE END LIST*
G54D10*
G54D11*
X38350Y-28800D02*
G75*
G03X36750Y-27499I-1450J-149D01*
G74*
G01*
X36750Y-27500D02*
G75*
G03X34600Y-28849I-400J-1749D01*
G74*
G01*
X31600Y-34050D02*
G75*
G03X30100Y-35550I0J-1500D01*
G74*
G01*
X31600Y-33550D02*
X31600Y-34050D01*
X33350Y-33550D02*
X31600Y-33550D01*
X33350Y-32100D02*
X33350Y-33550D01*
X29750Y-35550D02*
X30150Y-35550D01*
X29750Y-43150D02*
X29750Y-35550D01*
X30300Y-43700D02*
X29750Y-43150D01*
X31550Y-43700D02*
X30300Y-43700D01*
X31550Y-43900D02*
X31550Y-43700D01*
X31950Y-43900D02*
X31550Y-43900D01*
X31950Y-46450D02*
X31950Y-43900D01*
X31550Y-46450D02*
X31950Y-46450D01*
X31550Y-48850D02*
X31550Y-46450D01*
X41200Y-48850D02*
X31550Y-48850D01*
X41200Y-46450D02*
X41200Y-48850D01*
X40850Y-46450D02*
X41200Y-46450D01*
X40850Y-43950D02*
X40850Y-46450D01*
X41450Y-43950D02*
X40850Y-43950D01*
X41450Y-43750D02*
X41450Y-43950D01*
X42700Y-43750D02*
X41450Y-43750D01*
X43200Y-43250D02*
X42700Y-43750D01*
X43200Y-35550D02*
X43200Y-43250D01*
X42900Y-35550D02*
X43200Y-35550D01*
X41450Y-33600D02*
X41450Y-34050D01*
X39650Y-33600D02*
X41450Y-33600D01*
X39650Y-32150D02*
X39650Y-33600D01*
X40700Y-32150D02*
X39650Y-32150D01*
X40700Y-29800D02*
X40700Y-32150D01*
X39650Y-29800D02*
X40700Y-29800D01*
X39650Y-28800D02*
X39650Y-29800D01*
X38350Y-28800D02*
X39650Y-28800D01*
X33450Y-28800D02*
X34650Y-28800D01*
X42999Y-35650D02*
G75*
G03X41450Y-34000I-1599J50D01*
G74*
G01*
X33420Y-29810D02*
X33420Y-28840D01*
X32340Y-29810D02*
X33420Y-29810D01*
X32340Y-32100D02*
X32340Y-29810D01*
X33350Y-32100D02*
X32340Y-32100D01*
M02*
