G04 (created by PCBNEW (2013-07-07 BZR 4022)-stable) date 23/08/2014 11:16:52*
%MOIN*%
G04 Gerber Fmt 3.4, Leading zero omitted, Abs format*
%FSLAX34Y34*%
G01*
G70*
G90*
G04 APERTURE LIST*
%ADD10C,0.00590551*%
%ADD11C,0.012*%
%ADD12C,0.015*%
%ADD13C,0.008*%
%ADD14C,0.01*%
%ADD15C,0.005*%
%ADD16C,0.0026*%
%ADD17C,0.004*%
%ADD18C,0.0039*%
%ADD19C,0.0035*%
G04 APERTURE END LIST*
G54D10*
G54D11*
X35471Y-34919D02*
X35928Y-34919D01*
X35700Y-35223D02*
X35700Y-34614D01*
X37021Y-29519D02*
X37478Y-29519D01*
X37250Y-29823D02*
X37250Y-29214D01*
X35521Y-29519D02*
X35978Y-29519D01*
X35750Y-29823D02*
X35750Y-29214D01*
X42423Y-40942D02*
X41623Y-40942D01*
X42004Y-40942D02*
X42004Y-40600D01*
X42423Y-40600D02*
X41623Y-40600D01*
X42423Y-40057D02*
X42004Y-40057D01*
X41928Y-40085D01*
X41890Y-40142D01*
X41890Y-40257D01*
X41928Y-40314D01*
X42385Y-40057D02*
X42423Y-40114D01*
X42423Y-40257D01*
X42385Y-40314D01*
X42309Y-40342D01*
X42233Y-40342D01*
X42157Y-40314D01*
X42119Y-40257D01*
X42119Y-40114D01*
X42080Y-40057D01*
X42385Y-39514D02*
X42423Y-39571D01*
X42423Y-39685D01*
X42385Y-39742D01*
X42347Y-39771D01*
X42271Y-39800D01*
X42042Y-39800D01*
X41966Y-39771D01*
X41928Y-39742D01*
X41890Y-39685D01*
X41890Y-39571D01*
X41928Y-39514D01*
X42423Y-39257D02*
X41623Y-39257D01*
X42119Y-39200D02*
X42423Y-39028D01*
X41890Y-39028D02*
X42195Y-39257D01*
X42385Y-38800D02*
X42423Y-38742D01*
X42423Y-38628D01*
X42385Y-38571D01*
X42309Y-38542D01*
X42271Y-38542D01*
X42195Y-38571D01*
X42157Y-38628D01*
X42157Y-38714D01*
X42119Y-38771D01*
X42042Y-38800D01*
X42004Y-38800D01*
X41928Y-38771D01*
X41890Y-38714D01*
X41890Y-38628D01*
X41928Y-38571D01*
X41890Y-38285D02*
X42690Y-38285D01*
X41928Y-38285D02*
X41890Y-38228D01*
X41890Y-38114D01*
X41928Y-38057D01*
X41966Y-38028D01*
X42042Y-38000D01*
X42271Y-38000D01*
X42347Y-38028D01*
X42385Y-38057D01*
X42423Y-38114D01*
X42423Y-38228D01*
X42385Y-38285D01*
X42423Y-37485D02*
X42004Y-37485D01*
X41928Y-37514D01*
X41890Y-37571D01*
X41890Y-37685D01*
X41928Y-37742D01*
X42385Y-37485D02*
X42423Y-37542D01*
X42423Y-37685D01*
X42385Y-37742D01*
X42309Y-37771D01*
X42233Y-37771D01*
X42157Y-37742D01*
X42119Y-37685D01*
X42119Y-37542D01*
X42080Y-37485D01*
X42385Y-36942D02*
X42423Y-37000D01*
X42423Y-37114D01*
X42385Y-37171D01*
X42347Y-37200D01*
X42271Y-37228D01*
X42042Y-37228D01*
X41966Y-37200D01*
X41928Y-37171D01*
X41890Y-37114D01*
X41890Y-37000D01*
X41928Y-36942D01*
X42385Y-36457D02*
X42423Y-36514D01*
X42423Y-36628D01*
X42385Y-36685D01*
X42309Y-36714D01*
X42004Y-36714D01*
X41928Y-36685D01*
X41890Y-36628D01*
X41890Y-36514D01*
X41928Y-36457D01*
X42004Y-36428D01*
X42080Y-36428D01*
X42157Y-36714D01*
X31193Y-41114D02*
X30393Y-41114D01*
X31193Y-40771D01*
X30393Y-40771D01*
X31193Y-40400D02*
X31155Y-40457D01*
X31117Y-40485D01*
X31041Y-40514D01*
X30812Y-40514D01*
X30736Y-40485D01*
X30698Y-40457D01*
X30660Y-40400D01*
X30660Y-40314D01*
X30698Y-40257D01*
X30736Y-40228D01*
X30812Y-40200D01*
X31041Y-40200D01*
X31117Y-40228D01*
X31155Y-40257D01*
X31193Y-40314D01*
X31193Y-40400D01*
X30660Y-40028D02*
X30660Y-39800D01*
X30393Y-39942D02*
X31079Y-39942D01*
X31155Y-39914D01*
X31193Y-39857D01*
X31193Y-39800D01*
X30660Y-39685D02*
X30660Y-39457D01*
X30393Y-39600D02*
X31079Y-39600D01*
X31155Y-39571D01*
X31193Y-39514D01*
X31193Y-39457D01*
X31193Y-39257D02*
X30660Y-39257D01*
X30393Y-39257D02*
X30431Y-39285D01*
X30470Y-39257D01*
X30431Y-39228D01*
X30393Y-39257D01*
X30470Y-39257D01*
X30660Y-38971D02*
X31193Y-38971D01*
X30736Y-38971D02*
X30698Y-38942D01*
X30660Y-38885D01*
X30660Y-38800D01*
X30698Y-38742D01*
X30774Y-38714D01*
X31193Y-38714D01*
X30660Y-38171D02*
X31308Y-38171D01*
X31384Y-38200D01*
X31422Y-38228D01*
X31460Y-38285D01*
X31460Y-38371D01*
X31422Y-38428D01*
X31155Y-38171D02*
X31193Y-38228D01*
X31193Y-38342D01*
X31155Y-38400D01*
X31117Y-38428D01*
X31041Y-38457D01*
X30812Y-38457D01*
X30736Y-38428D01*
X30698Y-38400D01*
X30660Y-38342D01*
X30660Y-38228D01*
X30698Y-38171D01*
X31193Y-37885D02*
X30393Y-37885D01*
X31193Y-37628D02*
X30774Y-37628D01*
X30698Y-37657D01*
X30660Y-37714D01*
X30660Y-37800D01*
X30698Y-37857D01*
X30736Y-37885D01*
X31193Y-37085D02*
X30774Y-37085D01*
X30698Y-37114D01*
X30660Y-37171D01*
X30660Y-37285D01*
X30698Y-37342D01*
X31155Y-37085D02*
X31193Y-37142D01*
X31193Y-37285D01*
X31155Y-37342D01*
X31079Y-37371D01*
X31003Y-37371D01*
X30927Y-37342D01*
X30889Y-37285D01*
X30889Y-37142D01*
X30850Y-37085D01*
X31193Y-36800D02*
X30660Y-36800D01*
X30736Y-36800D02*
X30698Y-36771D01*
X30660Y-36714D01*
X30660Y-36628D01*
X30698Y-36571D01*
X30774Y-36542D01*
X31193Y-36542D01*
X30774Y-36542D02*
X30698Y-36514D01*
X30660Y-36457D01*
X30660Y-36371D01*
X30698Y-36314D01*
X30774Y-36285D01*
X31193Y-36285D01*
G54D12*
X33860Y-40970D02*
X35070Y-39760D01*
X35070Y-39760D02*
X35830Y-40520D01*
X35830Y-40520D02*
X35620Y-40730D01*
X35620Y-40730D02*
X35840Y-40950D01*
X35840Y-40950D02*
X36450Y-40340D01*
X36450Y-40340D02*
X36280Y-40170D01*
X36280Y-40170D02*
X36250Y-40140D01*
X36250Y-40140D02*
X36030Y-40360D01*
X36030Y-40360D02*
X35280Y-39610D01*
X35280Y-39610D02*
X36470Y-38420D01*
X36470Y-38420D02*
X37240Y-39190D01*
X37240Y-39190D02*
X37120Y-39310D01*
X37120Y-39310D02*
X38090Y-40280D01*
X38090Y-40280D02*
X38200Y-40170D01*
X38200Y-40170D02*
X39020Y-40990D01*
X39020Y-40990D02*
X37850Y-42160D01*
X37850Y-42160D02*
X37090Y-41400D01*
X37090Y-41400D02*
X37280Y-41210D01*
X37280Y-41210D02*
X37310Y-41180D01*
X37310Y-41180D02*
X37180Y-41050D01*
X37180Y-41050D02*
X37150Y-41020D01*
X37150Y-41020D02*
X37110Y-40980D01*
X37110Y-40980D02*
X36470Y-41620D01*
X36470Y-41620D02*
X36590Y-41740D01*
X36590Y-41740D02*
X36620Y-41770D01*
X36620Y-41770D02*
X36650Y-41800D01*
X36650Y-41800D02*
X36850Y-41600D01*
X36850Y-41600D02*
X37620Y-42370D01*
X37620Y-42370D02*
X36460Y-43530D01*
X36460Y-43530D02*
X36430Y-43560D01*
X36430Y-43560D02*
X35700Y-42830D01*
X35700Y-42830D02*
X35830Y-42700D01*
X35830Y-42700D02*
X34800Y-41670D01*
X34800Y-41670D02*
X34660Y-41810D01*
X34660Y-41810D02*
X33910Y-41060D01*
G54D13*
X37620Y-37250D02*
X37620Y-35750D01*
G54D14*
X37599Y-35749D02*
G75*
G03X37599Y-37250I-999J-750D01*
G74*
G01*
G54D12*
X34750Y-28969D02*
G75*
G02X36500Y-27720I1499J-250D01*
G74*
G01*
X38249Y-28969D02*
G75*
G03X36499Y-27720I-1499J-250D01*
G74*
G01*
X40700Y-46620D02*
X40700Y-43720D01*
X32100Y-46620D02*
X32100Y-43720D01*
X36450Y-46570D02*
X36450Y-43720D01*
X30250Y-35720D02*
G75*
G02X31750Y-34220I1500J0D01*
G74*
G01*
X30000Y-41720D02*
X31750Y-41720D01*
X30000Y-35720D02*
X30000Y-41720D01*
X31750Y-35720D02*
X30000Y-35720D01*
X31721Y-42610D02*
G75*
G03X31721Y-42610I-901J0D01*
G74*
G01*
X30750Y-43720D02*
X30750Y-42720D01*
X32500Y-31910D02*
X33500Y-31910D01*
X32500Y-29940D02*
X32500Y-31940D01*
X33500Y-29970D02*
X32500Y-29970D01*
X39500Y-29970D02*
X40500Y-29970D01*
X40500Y-29970D02*
X40500Y-31970D01*
X40500Y-31970D02*
X39500Y-31970D01*
X35550Y-45180D02*
G75*
G03X35550Y-45180I-1250J0D01*
G74*
G01*
X39850Y-45130D02*
G75*
G03X39850Y-45130I-1250J0D01*
G74*
G01*
X31750Y-46630D02*
X41000Y-46630D01*
X41000Y-46630D02*
X41000Y-48630D01*
X41000Y-48630D02*
X31750Y-48630D01*
X31750Y-48630D02*
X31750Y-46880D01*
X31750Y-46880D02*
X31750Y-46630D01*
X32500Y-46630D02*
X40250Y-46630D01*
X40250Y-46630D02*
X40500Y-46630D01*
X42250Y-43720D02*
X42250Y-42720D01*
X43101Y-42680D02*
G75*
G03X43101Y-42680I-901J0D01*
G74*
G01*
X41250Y-35720D02*
X43000Y-35720D01*
X43000Y-35720D02*
X43000Y-41720D01*
X43000Y-41720D02*
X41250Y-41720D01*
X42750Y-35720D02*
G75*
G03X41250Y-34220I-1500J0D01*
G74*
G01*
X31750Y-33750D02*
X41250Y-33750D01*
X31750Y-33720D02*
X31750Y-43720D01*
X31750Y-43720D02*
X41250Y-43720D01*
X41250Y-43720D02*
X41250Y-33720D01*
X33530Y-33720D02*
X33530Y-28970D01*
X33500Y-28970D02*
X39500Y-28970D01*
X39500Y-28970D02*
X39500Y-33720D01*
X39500Y-33720D02*
X33500Y-33720D01*
X37000Y-33720D02*
X33500Y-33720D01*
G54D15*
X32700Y-38450D02*
X32700Y-38700D01*
X32700Y-38700D02*
X33100Y-38700D01*
X33100Y-38000D02*
X32700Y-38000D01*
X32700Y-38000D02*
X32700Y-38250D01*
X32650Y-38450D02*
X32700Y-38450D01*
X32700Y-38250D02*
X32650Y-38250D01*
X33100Y-38700D02*
X33100Y-38000D01*
X32650Y-38250D02*
X32650Y-38450D01*
X39900Y-38550D02*
X40150Y-38550D01*
X40150Y-38550D02*
X40150Y-38150D01*
X39450Y-38150D02*
X39450Y-38550D01*
X39450Y-38550D02*
X39700Y-38550D01*
X39900Y-38600D02*
X39900Y-38550D01*
X39700Y-38550D02*
X39700Y-38600D01*
X40150Y-38150D02*
X39450Y-38150D01*
X39700Y-38600D02*
X39900Y-38600D01*
X32250Y-36300D02*
X32250Y-37200D01*
X32250Y-37200D02*
X32900Y-37200D01*
X33600Y-36300D02*
X34250Y-36300D01*
X34250Y-36300D02*
X34250Y-37200D01*
X34250Y-37200D02*
X33600Y-37200D01*
X32900Y-36300D02*
X32250Y-36300D01*
X40750Y-37200D02*
X40750Y-36300D01*
X40750Y-36300D02*
X40100Y-36300D01*
X39400Y-37200D02*
X38750Y-37200D01*
X38750Y-37200D02*
X38750Y-36300D01*
X38750Y-36300D02*
X39400Y-36300D01*
X40100Y-37200D02*
X40750Y-37200D01*
X32950Y-34000D02*
X32050Y-34000D01*
X32050Y-34000D02*
X32050Y-34650D01*
X32950Y-35350D02*
X32950Y-36000D01*
X32950Y-36000D02*
X32050Y-36000D01*
X32050Y-36000D02*
X32050Y-35350D01*
X32950Y-34650D02*
X32950Y-34000D01*
X35200Y-34000D02*
X34300Y-34000D01*
X34300Y-34000D02*
X34300Y-34650D01*
X35200Y-35350D02*
X35200Y-36000D01*
X35200Y-36000D02*
X34300Y-36000D01*
X34300Y-36000D02*
X34300Y-35350D01*
X35200Y-34650D02*
X35200Y-34000D01*
X38950Y-34000D02*
X38050Y-34000D01*
X38050Y-34000D02*
X38050Y-34650D01*
X38950Y-35350D02*
X38950Y-36000D01*
X38950Y-36000D02*
X38050Y-36000D01*
X38050Y-36000D02*
X38050Y-35350D01*
X38950Y-34650D02*
X38950Y-34000D01*
X40950Y-34000D02*
X40050Y-34000D01*
X40050Y-34000D02*
X40050Y-34650D01*
X40950Y-35350D02*
X40950Y-36000D01*
X40950Y-36000D02*
X40050Y-36000D01*
X40050Y-36000D02*
X40050Y-35350D01*
X40950Y-34650D02*
X40950Y-34000D01*
G54D16*
X36501Y-38219D02*
X36579Y-38219D01*
X36579Y-38219D02*
X36579Y-38141D01*
X36501Y-38141D02*
X36579Y-38141D01*
X36501Y-38219D02*
X36501Y-38141D01*
X36717Y-38455D02*
X36854Y-38455D01*
X36854Y-38455D02*
X36854Y-38357D01*
X36717Y-38357D02*
X36854Y-38357D01*
X36717Y-38455D02*
X36717Y-38357D01*
X36854Y-38455D02*
X36894Y-38455D01*
X36894Y-38455D02*
X36894Y-37984D01*
X36854Y-37984D02*
X36894Y-37984D01*
X36854Y-38455D02*
X36854Y-37984D01*
X36854Y-37964D02*
X36894Y-37964D01*
X36894Y-37964D02*
X36894Y-37905D01*
X36854Y-37905D02*
X36894Y-37905D01*
X36854Y-37964D02*
X36854Y-37905D01*
X36186Y-38455D02*
X36226Y-38455D01*
X36226Y-38455D02*
X36226Y-37984D01*
X36186Y-37984D02*
X36226Y-37984D01*
X36186Y-38455D02*
X36186Y-37984D01*
X36186Y-37964D02*
X36226Y-37964D01*
X36226Y-37964D02*
X36226Y-37905D01*
X36186Y-37905D02*
X36226Y-37905D01*
X36186Y-37964D02*
X36186Y-37905D01*
X36717Y-38455D02*
X36776Y-38455D01*
X36776Y-38455D02*
X36776Y-38357D01*
X36717Y-38357D02*
X36776Y-38357D01*
X36717Y-38455D02*
X36717Y-38357D01*
G54D17*
X37150Y-38475D02*
X35930Y-38475D01*
X35930Y-38475D02*
X35930Y-37885D01*
X35930Y-37885D02*
X37150Y-37885D01*
X37150Y-37885D02*
X37150Y-38475D01*
X36324Y-38376D02*
G75*
G03X36756Y-38375I215J196D01*
G74*
G01*
X36324Y-37983D02*
G75*
G03X36323Y-38375I215J-196D01*
G74*
G01*
X36755Y-37983D02*
G75*
G03X36323Y-37984I-215J-196D01*
G74*
G01*
X36755Y-38376D02*
G75*
G03X36756Y-37984I-215J196D01*
G74*
G01*
G54D16*
X34789Y-29961D02*
X34711Y-29961D01*
X34711Y-29961D02*
X34711Y-30039D01*
X34789Y-30039D02*
X34711Y-30039D01*
X34789Y-29961D02*
X34789Y-30039D01*
X34573Y-29725D02*
X34436Y-29725D01*
X34436Y-29725D02*
X34436Y-29823D01*
X34573Y-29823D02*
X34436Y-29823D01*
X34573Y-29725D02*
X34573Y-29823D01*
X34436Y-29725D02*
X34396Y-29725D01*
X34396Y-29725D02*
X34396Y-30196D01*
X34436Y-30196D02*
X34396Y-30196D01*
X34436Y-29725D02*
X34436Y-30196D01*
X34436Y-30216D02*
X34396Y-30216D01*
X34396Y-30216D02*
X34396Y-30275D01*
X34436Y-30275D02*
X34396Y-30275D01*
X34436Y-30216D02*
X34436Y-30275D01*
X35104Y-29725D02*
X35064Y-29725D01*
X35064Y-29725D02*
X35064Y-30196D01*
X35104Y-30196D02*
X35064Y-30196D01*
X35104Y-29725D02*
X35104Y-30196D01*
X35104Y-30216D02*
X35064Y-30216D01*
X35064Y-30216D02*
X35064Y-30275D01*
X35104Y-30275D02*
X35064Y-30275D01*
X35104Y-30216D02*
X35104Y-30275D01*
X34573Y-29725D02*
X34514Y-29725D01*
X34514Y-29725D02*
X34514Y-29823D01*
X34573Y-29823D02*
X34514Y-29823D01*
X34573Y-29725D02*
X34573Y-29823D01*
G54D17*
X34140Y-29705D02*
X35360Y-29705D01*
X35360Y-29705D02*
X35360Y-30295D01*
X35360Y-30295D02*
X34140Y-30295D01*
X34140Y-30295D02*
X34140Y-29705D01*
X34965Y-29803D02*
G75*
G03X34533Y-29804I-215J-196D01*
G74*
G01*
X34965Y-30196D02*
G75*
G03X34966Y-29804I-215J196D01*
G74*
G01*
X34534Y-30196D02*
G75*
G03X34966Y-30195I215J196D01*
G74*
G01*
X34534Y-29803D02*
G75*
G03X34533Y-30195I215J-196D01*
G74*
G01*
G54D16*
X38211Y-30039D02*
X38289Y-30039D01*
X38289Y-30039D02*
X38289Y-29961D01*
X38211Y-29961D02*
X38289Y-29961D01*
X38211Y-30039D02*
X38211Y-29961D01*
X38427Y-30275D02*
X38564Y-30275D01*
X38564Y-30275D02*
X38564Y-30177D01*
X38427Y-30177D02*
X38564Y-30177D01*
X38427Y-30275D02*
X38427Y-30177D01*
X38564Y-30275D02*
X38604Y-30275D01*
X38604Y-30275D02*
X38604Y-29804D01*
X38564Y-29804D02*
X38604Y-29804D01*
X38564Y-30275D02*
X38564Y-29804D01*
X38564Y-29784D02*
X38604Y-29784D01*
X38604Y-29784D02*
X38604Y-29725D01*
X38564Y-29725D02*
X38604Y-29725D01*
X38564Y-29784D02*
X38564Y-29725D01*
X37896Y-30275D02*
X37936Y-30275D01*
X37936Y-30275D02*
X37936Y-29804D01*
X37896Y-29804D02*
X37936Y-29804D01*
X37896Y-30275D02*
X37896Y-29804D01*
X37896Y-29784D02*
X37936Y-29784D01*
X37936Y-29784D02*
X37936Y-29725D01*
X37896Y-29725D02*
X37936Y-29725D01*
X37896Y-29784D02*
X37896Y-29725D01*
X38427Y-30275D02*
X38486Y-30275D01*
X38486Y-30275D02*
X38486Y-30177D01*
X38427Y-30177D02*
X38486Y-30177D01*
X38427Y-30275D02*
X38427Y-30177D01*
G54D17*
X38860Y-30295D02*
X37640Y-30295D01*
X37640Y-30295D02*
X37640Y-29705D01*
X37640Y-29705D02*
X38860Y-29705D01*
X38860Y-29705D02*
X38860Y-30295D01*
X38034Y-30196D02*
G75*
G03X38466Y-30195I215J196D01*
G74*
G01*
X38034Y-29803D02*
G75*
G03X38033Y-30195I215J-196D01*
G74*
G01*
X38465Y-29803D02*
G75*
G03X38033Y-29804I-215J-196D01*
G74*
G01*
X38465Y-30196D02*
G75*
G03X38466Y-29804I-215J196D01*
G74*
G01*
G54D11*
X36157Y-35042D02*
X36157Y-34442D01*
X36300Y-34442D01*
X36385Y-34471D01*
X36442Y-34528D01*
X36471Y-34585D01*
X36500Y-34700D01*
X36500Y-34785D01*
X36471Y-34900D01*
X36442Y-34957D01*
X36385Y-35014D01*
X36300Y-35042D01*
X36157Y-35042D01*
X37071Y-35042D02*
X36728Y-35042D01*
X36900Y-35042D02*
X36900Y-34442D01*
X36842Y-34528D01*
X36785Y-34585D01*
X36728Y-34614D01*
G54D18*
X34050Y-38378D02*
X34035Y-38407D01*
X34007Y-38435D01*
X33964Y-38478D01*
X33950Y-38507D01*
X33950Y-38535D01*
X34021Y-38521D02*
X34007Y-38550D01*
X33978Y-38578D01*
X33921Y-38592D01*
X33821Y-38592D01*
X33764Y-38578D01*
X33735Y-38550D01*
X33721Y-38521D01*
X33721Y-38464D01*
X33735Y-38435D01*
X33764Y-38407D01*
X33821Y-38392D01*
X33921Y-38392D01*
X33978Y-38407D01*
X34007Y-38435D01*
X34021Y-38464D01*
X34021Y-38521D01*
X34021Y-38107D02*
X34021Y-38278D01*
X34021Y-38192D02*
X33721Y-38192D01*
X33764Y-38221D01*
X33792Y-38250D01*
X33807Y-38278D01*
X38871Y-38500D02*
X38842Y-38485D01*
X38814Y-38457D01*
X38771Y-38414D01*
X38742Y-38400D01*
X38714Y-38400D01*
X38728Y-38471D02*
X38700Y-38457D01*
X38671Y-38428D01*
X38657Y-38371D01*
X38657Y-38271D01*
X38671Y-38214D01*
X38700Y-38185D01*
X38728Y-38171D01*
X38785Y-38171D01*
X38814Y-38185D01*
X38842Y-38214D01*
X38857Y-38271D01*
X38857Y-38371D01*
X38842Y-38428D01*
X38814Y-38457D01*
X38785Y-38471D01*
X38728Y-38471D01*
X38971Y-38200D02*
X38985Y-38185D01*
X39014Y-38171D01*
X39085Y-38171D01*
X39114Y-38185D01*
X39128Y-38200D01*
X39142Y-38228D01*
X39142Y-38257D01*
X39128Y-38300D01*
X38957Y-38471D01*
X39142Y-38471D01*
G54D15*
X33200Y-37642D02*
X33185Y-37657D01*
X33142Y-37671D01*
X33114Y-37671D01*
X33071Y-37657D01*
X33042Y-37628D01*
X33028Y-37600D01*
X33014Y-37542D01*
X33014Y-37500D01*
X33028Y-37442D01*
X33042Y-37414D01*
X33071Y-37385D01*
X33114Y-37371D01*
X33142Y-37371D01*
X33185Y-37385D01*
X33200Y-37400D01*
X33485Y-37671D02*
X33314Y-37671D01*
X33400Y-37671D02*
X33400Y-37371D01*
X33371Y-37414D01*
X33342Y-37442D01*
X33314Y-37457D01*
X39700Y-37592D02*
X39685Y-37607D01*
X39642Y-37621D01*
X39614Y-37621D01*
X39571Y-37607D01*
X39542Y-37578D01*
X39528Y-37550D01*
X39514Y-37492D01*
X39514Y-37450D01*
X39528Y-37392D01*
X39542Y-37364D01*
X39571Y-37335D01*
X39614Y-37321D01*
X39642Y-37321D01*
X39685Y-37335D01*
X39700Y-37350D01*
X39814Y-37350D02*
X39828Y-37335D01*
X39857Y-37321D01*
X39928Y-37321D01*
X39957Y-37335D01*
X39971Y-37350D01*
X39985Y-37378D01*
X39985Y-37407D01*
X39971Y-37450D01*
X39800Y-37621D01*
X39985Y-37621D01*
X33371Y-35050D02*
X33228Y-35150D01*
X33371Y-35221D02*
X33071Y-35221D01*
X33071Y-35107D01*
X33085Y-35078D01*
X33100Y-35064D01*
X33128Y-35050D01*
X33171Y-35050D01*
X33200Y-35064D01*
X33214Y-35078D01*
X33228Y-35107D01*
X33228Y-35221D01*
X33371Y-34764D02*
X33371Y-34935D01*
X33371Y-34850D02*
X33071Y-34850D01*
X33114Y-34878D01*
X33142Y-34907D01*
X33157Y-34935D01*
X34221Y-35050D02*
X34078Y-35150D01*
X34221Y-35221D02*
X33921Y-35221D01*
X33921Y-35107D01*
X33935Y-35078D01*
X33950Y-35064D01*
X33978Y-35050D01*
X34021Y-35050D01*
X34050Y-35064D01*
X34064Y-35078D01*
X34078Y-35107D01*
X34078Y-35221D01*
X33950Y-34935D02*
X33935Y-34921D01*
X33921Y-34892D01*
X33921Y-34821D01*
X33935Y-34792D01*
X33950Y-34778D01*
X33978Y-34764D01*
X34007Y-34764D01*
X34050Y-34778D01*
X34221Y-34950D01*
X34221Y-34764D01*
X37921Y-35050D02*
X37778Y-35150D01*
X37921Y-35221D02*
X37621Y-35221D01*
X37621Y-35107D01*
X37635Y-35078D01*
X37650Y-35064D01*
X37678Y-35050D01*
X37721Y-35050D01*
X37750Y-35064D01*
X37764Y-35078D01*
X37778Y-35107D01*
X37778Y-35221D01*
X37621Y-34950D02*
X37621Y-34764D01*
X37735Y-34864D01*
X37735Y-34821D01*
X37750Y-34792D01*
X37764Y-34778D01*
X37792Y-34764D01*
X37864Y-34764D01*
X37892Y-34778D01*
X37907Y-34792D01*
X37921Y-34821D01*
X37921Y-34907D01*
X37907Y-34935D01*
X37892Y-34950D01*
X39871Y-35050D02*
X39728Y-35150D01*
X39871Y-35221D02*
X39571Y-35221D01*
X39571Y-35107D01*
X39585Y-35078D01*
X39600Y-35064D01*
X39628Y-35050D01*
X39671Y-35050D01*
X39700Y-35064D01*
X39714Y-35078D01*
X39728Y-35107D01*
X39728Y-35221D01*
X39671Y-34792D02*
X39871Y-34792D01*
X39557Y-34864D02*
X39771Y-34935D01*
X39771Y-34750D01*
G54D19*
X34478Y-30821D02*
X34478Y-30521D01*
X34550Y-30521D01*
X34592Y-30535D01*
X34621Y-30564D01*
X34635Y-30592D01*
X34650Y-30650D01*
X34650Y-30692D01*
X34635Y-30750D01*
X34621Y-30778D01*
X34592Y-30807D01*
X34550Y-30821D01*
X34478Y-30821D01*
X34750Y-30521D02*
X34935Y-30521D01*
X34835Y-30635D01*
X34878Y-30635D01*
X34907Y-30650D01*
X34921Y-30664D01*
X34935Y-30692D01*
X34935Y-30764D01*
X34921Y-30792D01*
X34907Y-30807D01*
X34878Y-30821D01*
X34792Y-30821D01*
X34764Y-30807D01*
X34750Y-30792D01*
X34557Y-29471D02*
X34414Y-29471D01*
X34414Y-29171D01*
X34657Y-29314D02*
X34757Y-29314D01*
X34800Y-29471D02*
X34657Y-29471D01*
X34657Y-29171D01*
X34800Y-29171D01*
X34928Y-29471D02*
X34928Y-29171D01*
X35000Y-29171D01*
X35042Y-29185D01*
X35071Y-29214D01*
X35085Y-29242D01*
X35100Y-29300D01*
X35100Y-29342D01*
X35085Y-29400D01*
X35071Y-29428D01*
X35042Y-29457D01*
X35000Y-29471D01*
X34928Y-29471D01*
X38028Y-30821D02*
X38028Y-30521D01*
X38100Y-30521D01*
X38142Y-30535D01*
X38171Y-30564D01*
X38185Y-30592D01*
X38200Y-30650D01*
X38200Y-30692D01*
X38185Y-30750D01*
X38171Y-30778D01*
X38142Y-30807D01*
X38100Y-30821D01*
X38028Y-30821D01*
X38457Y-30621D02*
X38457Y-30821D01*
X38385Y-30507D02*
X38314Y-30721D01*
X38500Y-30721D01*
X38057Y-29471D02*
X37914Y-29471D01*
X37914Y-29171D01*
X38157Y-29314D02*
X38257Y-29314D01*
X38300Y-29471D02*
X38157Y-29471D01*
X38157Y-29171D01*
X38300Y-29171D01*
X38428Y-29471D02*
X38428Y-29171D01*
X38500Y-29171D01*
X38542Y-29185D01*
X38571Y-29214D01*
X38585Y-29242D01*
X38600Y-29300D01*
X38600Y-29342D01*
X38585Y-29400D01*
X38571Y-29428D01*
X38542Y-29457D01*
X38500Y-29471D01*
X38428Y-29471D01*
M02*
