M48
INCH,TZ
T1C0.022
T2C0.032
T3C0.059
%
G90
G05
T1
X014680Y-021320
X014780Y-022390
X014790Y-020230
X015050Y-023440
X015070Y-019210
X015520Y-018220
X015530Y-024440
X016140Y-017340
X016140Y-025340
X016910Y-016560
X016930Y-026090
X017780Y-015950
X017790Y-026710
X018770Y-015490
X018780Y-027170
X019810Y-015220
X019820Y-027450
X020910Y-027550
X021970Y-027450
X023020Y-015490
X023020Y-027150
X024010Y-015950
X024020Y-026710
X024900Y-016570
X024900Y-026080
X025660Y-017320
X025660Y-025310
X026270Y-024440
X026290Y-018230
X026730Y-019190
X026730Y-023470
X027030Y-020250
X027030Y-022400
X027120Y-021340
T2
X020750Y-017500
X021750Y-017500
T3
X021500Y-015750
T1
X017130Y-022820G85X017130Y-023220
G05
X024930Y-022820G85X024930Y-023220
G05
T0
M30
