G04 (created by PCBNEW (2013-07-07 BZR 4022)-stable) date 23/08/2014 11:18:16*
%MOIN*%
G04 Gerber Fmt 3.4, Leading zero omitted, Abs format*
%FSLAX34Y34*%
G01*
G70*
G90*
G04 APERTURE LIST*
%ADD10C,0.00393701*%
%ADD11C,0.08*%
%ADD12O,0.1X0.2*%
%ADD13C,0.6362*%
%ADD14C,0.15*%
%ADD15C,0.03*%
%ADD16C,0.01*%
G04 APERTURE END LIST*
G54D10*
G54D11*
X24010Y-15950D03*
X23020Y-15490D03*
X26290Y-18230D03*
X25660Y-17320D03*
X24900Y-16570D03*
X26270Y-24440D03*
X26730Y-23470D03*
X27030Y-22400D03*
X14790Y-20230D03*
X15070Y-19210D03*
X15520Y-18220D03*
X19820Y-27450D03*
X18780Y-27170D03*
X17790Y-26710D03*
X16930Y-26090D03*
X16140Y-17340D03*
X16910Y-16560D03*
X17780Y-15950D03*
X27120Y-21340D03*
X27030Y-20250D03*
X26730Y-19190D03*
X14680Y-21320D03*
X14780Y-22390D03*
X15050Y-23440D03*
X19810Y-15220D03*
X18770Y-15490D03*
X20910Y-27550D03*
X21970Y-27450D03*
X23020Y-27150D03*
X24020Y-26710D03*
X25660Y-25310D03*
X16140Y-25340D03*
X15530Y-24440D03*
X24900Y-26080D03*
G54D12*
X17130Y-23020D03*
X24930Y-23020D03*
G54D13*
X21030Y-23020D03*
G54D11*
X20750Y-17500D03*
X21750Y-17500D03*
G54D14*
X21500Y-15750D03*
G54D15*
X17130Y-23020D02*
X17130Y-18620D01*
X18250Y-17500D02*
X20750Y-17500D01*
X17130Y-18620D02*
X18250Y-17500D01*
X15530Y-24440D02*
X15710Y-24440D01*
X15710Y-24440D02*
X17130Y-23020D01*
X16930Y-26090D02*
X16890Y-26090D01*
X16890Y-26090D02*
X16140Y-25340D01*
X17790Y-26710D02*
X17550Y-26710D01*
X17550Y-26710D02*
X16930Y-26090D01*
X18780Y-27170D02*
X18250Y-27170D01*
X18250Y-27170D02*
X17790Y-26710D01*
X19820Y-27450D02*
X19060Y-27450D01*
X19060Y-27450D02*
X18780Y-27170D01*
X16140Y-25050D02*
X15530Y-24440D01*
X16140Y-25340D02*
X16140Y-25050D01*
X14790Y-19490D02*
X15070Y-19210D01*
X15070Y-19210D02*
X15070Y-18670D01*
X15070Y-18670D02*
X15520Y-18220D01*
X14790Y-20230D02*
X14790Y-19490D01*
X26730Y-23470D02*
X26730Y-23980D01*
X27030Y-22400D02*
X27030Y-23170D01*
X27030Y-23170D02*
X26730Y-23470D01*
X26730Y-23980D02*
X26270Y-24440D01*
X25660Y-17320D02*
X25660Y-17600D01*
X25660Y-17600D02*
X26290Y-18230D01*
X24910Y-16570D02*
X25660Y-17320D01*
X24900Y-16570D02*
X24910Y-16570D01*
X23550Y-15490D02*
X24010Y-15950D01*
X23020Y-15490D02*
X23550Y-15490D01*
X16140Y-17330D02*
X16910Y-16560D01*
X16910Y-16560D02*
X17170Y-16560D01*
X16140Y-17340D02*
X16140Y-17330D01*
X17170Y-16560D02*
X17780Y-15950D01*
X26730Y-19950D02*
X27030Y-20250D01*
X27030Y-21260D02*
X27120Y-21350D01*
X27030Y-20250D02*
X27030Y-21260D01*
X26730Y-19190D02*
X26730Y-19950D01*
X15050Y-22660D02*
X14780Y-22390D01*
X14780Y-22390D02*
X14780Y-21420D01*
X14780Y-21420D02*
X14680Y-21320D01*
X15050Y-23440D02*
X15050Y-22660D01*
X19540Y-15490D02*
X19810Y-15220D01*
X18770Y-15490D02*
X19540Y-15490D01*
X21750Y-17500D02*
X21750Y-22300D01*
X21750Y-22300D02*
X21030Y-23020D01*
X20910Y-27550D02*
X20910Y-23140D01*
X20910Y-23140D02*
X21030Y-23020D01*
X23460Y-26710D02*
X23020Y-27150D01*
X24900Y-26080D02*
X24650Y-26080D01*
X24650Y-26080D02*
X24020Y-26710D01*
X25660Y-25310D02*
X25660Y-25320D01*
X25660Y-25320D02*
X24900Y-26080D01*
X22270Y-27150D02*
X21970Y-27450D01*
X21970Y-27450D02*
X21010Y-27450D01*
X21010Y-27450D02*
X20910Y-27550D01*
X23020Y-27150D02*
X22270Y-27150D01*
X24020Y-26710D02*
X23460Y-26710D01*
G54D10*
G36*
X21184Y-22935D02*
X21100Y-23020D01*
X21106Y-23025D01*
X21035Y-23096D01*
X21030Y-23090D01*
X21024Y-23096D01*
X20953Y-23025D01*
X20959Y-23020D01*
X18565Y-20626D01*
X18170Y-21004D01*
X17710Y-22040D01*
X17660Y-21965D01*
X17530Y-21878D01*
X17530Y-19220D01*
X18030Y-18729D01*
X19333Y-19996D01*
X19159Y-20063D01*
X19014Y-20160D01*
X18636Y-20555D01*
X21030Y-22949D01*
X21121Y-22858D01*
X21184Y-22935D01*
X21184Y-22935D01*
G37*
G54D16*
X21184Y-22935D02*
X21100Y-23020D01*
X21106Y-23025D01*
X21035Y-23096D01*
X21030Y-23090D01*
X21024Y-23096D01*
X20953Y-23025D01*
X20959Y-23020D01*
X18565Y-20626D01*
X18170Y-21004D01*
X17710Y-22040D01*
X17660Y-21965D01*
X17530Y-21878D01*
X17530Y-19220D01*
X18030Y-18729D01*
X19333Y-19996D01*
X19159Y-20063D01*
X19014Y-20160D01*
X18636Y-20555D01*
X21030Y-22949D01*
X21121Y-22858D01*
X21184Y-22935D01*
G54D10*
G36*
X26299Y-21210D02*
X25497Y-22021D01*
X25460Y-21965D01*
X25217Y-21802D01*
X24930Y-21745D01*
X24642Y-21802D01*
X24399Y-21965D01*
X24336Y-22059D01*
X23986Y-21149D01*
X23889Y-21004D01*
X23494Y-20626D01*
X22610Y-21509D01*
X22543Y-21435D01*
X23423Y-20555D01*
X23045Y-20160D01*
X22137Y-19757D01*
X22137Y-17958D01*
X21750Y-17570D01*
X21362Y-17958D01*
X21402Y-18064D01*
X21644Y-18154D01*
X21902Y-18144D01*
X22097Y-18064D01*
X22137Y-17958D01*
X22137Y-19757D01*
X21797Y-19607D01*
X20729Y-19580D01*
X20642Y-19490D01*
X20549Y-19575D01*
X20433Y-19573D01*
X19902Y-19777D01*
X18440Y-18349D01*
X18883Y-17900D01*
X20230Y-17900D01*
X20381Y-18050D01*
X20620Y-18149D01*
X20878Y-18150D01*
X21117Y-18051D01*
X21284Y-17884D01*
X21291Y-17887D01*
X21679Y-17500D01*
X21291Y-17112D01*
X21284Y-17115D01*
X21118Y-16949D01*
X20879Y-16850D01*
X20621Y-16849D01*
X20382Y-16948D01*
X20230Y-17100D01*
X19670Y-17100D01*
X20589Y-16165D01*
X20651Y-16315D01*
X20932Y-16597D01*
X21300Y-16749D01*
X21698Y-16750D01*
X21768Y-16721D01*
X21931Y-16873D01*
X21855Y-16845D01*
X21597Y-16855D01*
X21402Y-16935D01*
X21362Y-17041D01*
X21750Y-17429D01*
X21755Y-17423D01*
X21826Y-17494D01*
X21820Y-17500D01*
X22208Y-17887D01*
X22314Y-17847D01*
X22323Y-17823D01*
X24318Y-19839D01*
X24628Y-19549D01*
X26299Y-21210D01*
X26299Y-21210D01*
G37*
G54D16*
X26299Y-21210D02*
X25497Y-22021D01*
X25460Y-21965D01*
X25217Y-21802D01*
X24930Y-21745D01*
X24642Y-21802D01*
X24399Y-21965D01*
X24336Y-22059D01*
X23986Y-21149D01*
X23889Y-21004D01*
X23494Y-20626D01*
X22610Y-21509D01*
X22543Y-21435D01*
X23423Y-20555D01*
X23045Y-20160D01*
X22137Y-19757D01*
X22137Y-17958D01*
X21750Y-17570D01*
X21362Y-17958D01*
X21402Y-18064D01*
X21644Y-18154D01*
X21902Y-18144D01*
X22097Y-18064D01*
X22137Y-17958D01*
X22137Y-19757D01*
X21797Y-19607D01*
X20729Y-19580D01*
X20642Y-19490D01*
X20549Y-19575D01*
X20433Y-19573D01*
X19902Y-19777D01*
X18440Y-18349D01*
X18883Y-17900D01*
X20230Y-17900D01*
X20381Y-18050D01*
X20620Y-18149D01*
X20878Y-18150D01*
X21117Y-18051D01*
X21284Y-17884D01*
X21291Y-17887D01*
X21679Y-17500D01*
X21291Y-17112D01*
X21284Y-17115D01*
X21118Y-16949D01*
X20879Y-16850D01*
X20621Y-16849D01*
X20382Y-16948D01*
X20230Y-17100D01*
X19670Y-17100D01*
X20589Y-16165D01*
X20651Y-16315D01*
X20932Y-16597D01*
X21300Y-16749D01*
X21698Y-16750D01*
X21768Y-16721D01*
X21931Y-16873D01*
X21855Y-16845D01*
X21597Y-16855D01*
X21402Y-16935D01*
X21362Y-17041D01*
X21750Y-17429D01*
X21755Y-17423D01*
X21826Y-17494D01*
X21820Y-17500D01*
X22208Y-17887D01*
X22314Y-17847D01*
X22323Y-17823D01*
X24318Y-19839D01*
X24628Y-19549D01*
X26299Y-21210D01*
M02*
